<?xml version="1.0" standalone="no"?><!DOCTYPE svg PUBLIC "-//W3C//DTD SVG 1.1//EN" "http://www.w3.org/Graphics/SVG/1.1/DTD/svg11.dtd"><svg t="1716096802447" class="icon" viewBox="0 0 1681 1024" version="1.1" xmlns="http://www.w3.org/2000/svg" p-id="70903" xmlns:xlink="http://www.w3.org/1999/xlink" width="147.744140625" height="90"><path d="M1325.958752 233.191623l186.278339 496.941877c0 124.711884-310.357272 225.813993-693.211323 225.813993S125.821251 854.85219 125.821251 730.119888l186.285145-496.935071" fill="#D8D8E6" p-id="70904"></path><path d="M1162.827386 353.43201l131.579069 496.941878c0 124.711884-204.953814 105.573606-475.380687 105.573605-270.413261 0-503.877121 19.145085-503.877121-105.587217l131.572263-496.935071" fill="#E9E9F7" p-id="70905"></path><path d="M929.036841 378.38936l53.882558 537.273826c0 117.211748-83.93755 29.006879-194.697276 29.006879-110.752919 0-206.369448 80.963358-206.369447-36.262002l53.882557-530.025509" fill="#F1F1FF" p-id="70906"></path><path d="M312.106396 233.191623a506.926178 165.13231 0 1 0 1013.852356 0 506.926178 165.13231 0 1 0-1013.852356 0Z" fill="#F0F0FF" p-id="70907"></path><path d="M357.188885 301.250935C436.804668 244.019859 613.575121 204.177938 819.032574 204.177938c205.450647 0 382.2211 39.841922 461.84369 97.072997 28.87076-20.75809 45.082489-43.782556 45.082488-68.059312 0-91.206285-226.964196-165.139116-506.926178-165.139116-279.968788 0-506.926178 73.932831-506.926178 165.139116-0.006806 24.276757 16.204922 47.301222 45.082489 68.059312z" fill="#6E6E96" opacity=".15" p-id="70908"></path><path d="M819.032574 102.088969c308.240627 0 476.387965 86.605475 476.387965 131.102654 0 44.497179-168.147338 131.102654-476.387965 131.102654S342.637803 277.688801 342.637803 233.191623C342.637803 188.694444 510.791947 102.088969 819.032574 102.088969z m-537.464392 131.102654c0 130.748745 270.379231 199.161967 537.464392 199.161966s537.471198-68.406415 537.471198-199.161966S1086.117735 34.029656 819.032574 34.029656s-537.464392 68.413221-537.464392 199.161967z" fill="#6E6E96" p-id="70909"></path><path d="M333.558691 780.858106s471.05892 170.175505 942.43772 0l69.250351 77.165648s-251.377071 103.164306-510.948484 103.164306c-259.571412 0-543.576118-98.686003-543.576118-98.686003l42.836531-81.643951z" fill="#D8D8E6" p-id="70910"></path><path d="M1297.789003 246.306652l186.278338 496.941877a37.371369 37.371369 0 0 1-2.361658-13.115029c0 80.085393-252.105306 191.784337-662.673109 191.784337-410.574609 0-662.673109-111.70575-662.673109-191.797949 0 4.505526-0.8031 8.956606-2.361658 13.11503l186.278338-496.935072c6.50647-17.341513-0.850741-37.276086-16.4091-44.517596-15.565165-7.241511-33.451152 0.946024-39.950816 18.287537l-186.278339 496.941877a37.371369 37.371369 0 0 0-2.361658 13.11503c0 77.880271 77.805406 144.394638 225.004087 192.349229 133.63446 43.530736 310.758821 67.508032 498.745449 67.508033s365.110989-23.97049 498.745449-67.508033c147.191875-47.947786 225.004088-114.455346 225.004088-192.335617 0-4.505526-0.796294-8.956606-2.368465-13.11503l-186.278338-496.948683c-6.499664-17.341513-24.378846-25.529048-39.944011-18.287537s-22.901959 27.176084-16.395488 44.517596z" fill="#6E6E96" p-id="70911"></path></svg>