<?xml version="1.0" encoding="utf-8"?>
<!-- Generator: Adobe Illustrator 28.0.0, SVG Export Plug-In . SVG Version: 6.00 Build 0)  -->
<svg version="1.1" id="图层_1" xmlns="http://www.w3.org/2000/svg" xmlns:xlink="http://www.w3.org/1999/xlink" x="0px" y="0px"
	 viewBox="0 0 95.4 90" style="enable-background:new 0 0 95.4 90;" xml:space="preserve">
<style type="text/css">
	.st0{fill:#F0F9FF;}
	.st1{fill:#E4E4F5;}
	.st2{fill:#DBEAFF;}
	.st3{fill:#6E6E96;}
	.st4{fill:#FDD089;}
	.st5{fill:#FFCFCF;}
	.st6{opacity:0.52;fill:#FFFFFF;enable-background:new    ;}
	.st7{fill:#FABE78;}
</style>
<path class="st0" d="M25.4,67l40.5,18.2l26.9-52.9L59.7,17.2"/>
<path class="st1" d="M65.9,86.7c-0.2,0-0.4,0-0.6-0.1L38.9,74.7c-0.8-0.4-1.1-1.3-0.8-2l0,0c0.4-0.8,1.3-1.1,2-0.8l0,0l25,11.3
	L90.7,33L67.5,22.4c-0.8-0.4-1.1-1.3-0.8-2.1c0.4-0.8,1.3-1.1,2.1-0.8l24.7,11.3c0.8,0.4,1.1,1.3,0.8,2.1c0,0,0,0,0,0.1l-27,52.9
	C67,86.4,66.5,86.7,65.9,86.7z"/>
<path class="st2" d="M8.6,6.1h48.2v57.7H8.6V6.1z"/>
<path class="st3" d="M56.8,65.4H8.6c-0.9,0-1.5-0.7-1.5-1.5l0,0V6.1c0-0.9,0.7-1.5,1.5-1.5h48.2c0.9,0,1.5,0.7,1.5,1.5l0,0v57.7
	C58.3,64.7,57.6,65.4,56.8,65.4L56.8,65.4z M10.1,62.3h45.1V7.7H10.1V62.3z"/>
<path class="st4" d="M56.8,63.9L23.9,31L8.6,46.4v17.5H56.8z"/>
<path class="st5" d="M33.4,22.9c0,3.7,3,6.6,6.6,6.6c3.7,0,6.6-3,6.6-6.6c0-3.7-3-6.6-6.6-6.6S33.4,19.3,33.4,22.9L33.4,22.9z"/>
<path class="st3" d="M40.1,31.1c-4.5,0-8.2-3.7-8.2-8.2s3.7-8.2,8.2-8.2s8.2,3.7,8.2,8.2S44.6,31.1,40.1,31.1z M40.1,17.8
	c-2.8,0-5.1,2.3-5.1,5.1s2.3,5.1,5.1,5.1s5.1-2.3,5.1-5.1S42.9,17.8,40.1,17.8z"/>
<path class="st6" d="M24.6,32.1L9.3,55.3v-7.9L24.6,32.1z"/>
<path class="st7" d="M23.9,31l16.8,32.2h16.1L23.9,31z"/>
<path class="st3" d="M56.8,65.4H8.6c-0.9,0-1.5-0.7-1.5-1.5l0,0V46.4c0-0.4,0.2-0.8,0.5-1.1L22.9,30c0.6-0.6,1.6-0.6,2.2,0l0,0
	L58,62.9c0.4,0.4,0.6,1.1,0.3,1.7C58,65.1,57.4,65.4,56.8,65.4z M10.1,62.3H53L23.9,33.2L10.1,47V62.3z"/>
</svg>
