<?xml version="1.0" encoding="utf-8"?>
<!-- Generator: Adobe Illustrator 28.0.0, SVG Export Plug-In . SVG Version: 6.00 Build 0)  -->
<svg version="1.1" id="图层_1" xmlns="http://www.w3.org/2000/svg" xmlns:xlink="http://www.w3.org/1999/xlink" x="0px" y="0px"
	 viewBox="0 0 32.2 32" style="enable-background:new 0 0 32.2 32;" xml:space="preserve">
<style type="text/css">
	.st0{fill:#FFE5C0;}
	.st1{fill:#6E6E96;}
	.st2{opacity:0.15;fill:#6E6E96;enable-background:new    ;}
	.st3{fill:#FFCFCF;}
	.st4{fill:#FFFFFF;}
</style>
<path class="st0" d="M17.8,2.7H8.3c-3.1,0-5.6,2.5-5.6,5.6v5.3c0,2.9,2.1,5.3,5,5.6c-0.1,0.3-0.1,0.7-0.1,1V22c0,1.8,1,2.3,2.3,0.9
	l3.8-3.8h4.1c3.1,0,5.6-2.5,5.6-5.6V8.2C23.4,5.2,20.9,2.7,17.8,2.7z"/>
<path class="st1" d="M8.6,24.1c-1,0-1.5-1.1-1.5-2.1v-1.8c0-0.1,0-0.2,0-0.3c0-0.1,0-0.3,0-0.4c-2.8-0.4-4.9-2.9-4.9-5.9V8.2
	c0-3.3,2.7-6,6-6h9.5c3.3,0,6,2.7,6,6v5.3c0,3.3-2.7,6-6,6h-3.9l-3.6,3.6C9.7,23.8,9.1,24.1,8.6,24.1z M8.3,3.1
	c-2.8,0-5.1,2.3-5.1,5.1v5.3c0,2.7,2,4.9,4.5,5.1l0.6,0.1l-0.2,0.5c-0.1,0.2-0.1,0.3,0,0.6c0,0.1,0,0.2,0,0.3v1.8
	c0,0.6,0.2,1.3,0.5,1.3c0.3,0,0.7-0.3,1-0.6l3.9-3.9h4.3c2.8,0,5.1-2.3,5.1-5.1V8.2c0-2.8-2.3-5.1-5.1-5.1H8.3z"/>
<path class="st2" d="M18,16.6h-4.1l-2.2,2.2l-0.2,0.6v-1.8c0.6-0.3,0-0.7,0.2-1c-8.6,0-8.8-2.7-8.8-5.6v2.4c0,2.9,2.1,5.3,5,5.6
	c-0.1,0.3-0.1,0.7-0.1,1v1.8c0,1.8,1,2.3,2.3,0.9l3.8-3.8H18c3.1,0,5.6-2.5,5.6-5.6v-2.3C23.6,14.1,21,16.6,18,16.6z"/>
<path class="st1" d="M9.4,19.6H7.7c-0.3,0-0.4-0.2-0.4-0.4s0.2-0.4,0.4-0.4h1.7c0.3,0,0.4,0.2,0.4,0.4S9.7,19.6,9.4,19.6z"/>
<path class="st3" d="M29.5,17.7c0-4.1-4-7.5-9-7.5s-9,3.3-9,7.5c0,3.1,2.3,5.7,5.5,6.9l0,0l0,0c0.5,0.2,0.9,0.3,1.5,0.4
	c4.5,0.5,3,2.4,5,3.6c2.4,1.5,1.3-3.5,3.9-6.2l0,0C28.7,21.1,29.5,19.5,29.5,17.7z"/>
<path class="st1" d="M24.3,29.3L24.3,29.3c-0.3,0-0.6-0.1-0.9-0.3c-0.9-0.5-1.2-1.1-1.5-1.7c-0.4-0.9-0.8-1.5-3.4-1.9l0,0
	c-0.5-0.1-1-0.3-1.5-0.4l0,0c-3.5-1.2-5.8-4.1-5.8-7.3c0-4.4,4.2-7.9,9.4-7.9s9.4,3.5,9.4,7.9c0,1.8-0.8,3.6-2.1,5.1
	c-1.1,1.1-1.5,2.7-1.9,4.1C25.5,28.1,25.2,29.3,24.3,29.3z M18.6,24.5c2.9,0.3,3.5,1.2,4,2.4c0.3,0.5,0.4,0.9,1.1,1.4
	c0.3,0.2,0.4,0.2,0.5,0.2c0.3,0,0.6-0.9,0.8-1.8c0.3-1.4,0.8-3.2,2.1-4.5c1.2-1.3,1.9-2.8,1.9-4.5c0-3.9-3.9-7-8.6-7s-8.6,3.2-8.6,7
	c0,2.8,2.1,5.3,5.2,6.4l0,0C17.6,24.3,18.1,24.4,18.6,24.5z"/>
<path class="st4" d="M27.5,22.2c0,0-1.3,1.6-3.4,1.7"/>
<path class="st1" d="M24.2,24.5c-0.3,0-0.4-0.2-0.4-0.4s0.2-0.4,0.4-0.4c1.9-0.2,3-1.6,3-1.6c0.2-0.2,0.4-0.3,0.6-0.1
	c0.2,0.2,0.3,0.4,0.1,0.6l0,0C27.9,22.6,26.5,24.3,24.2,24.5L24.2,24.5z"/>
<path class="st1" d="M15.8,17.4c0,0.7,0.5,1.2,1.2,1.2s1.2-0.5,1.2-1.2s-0.5-1.2-1.2-1.2S15.8,16.8,15.8,17.4z"/>
<path class="st1" d="M19.4,17.4c0,0.7,0.5,1.2,1.2,1.2c0.7,0,1.2-0.5,1.2-1.2s-0.5-1.2-1.2-1.2C20,16.2,19.4,16.8,19.4,17.4z"/>
<path class="st1" d="M25.5,17.4c0,0.7-0.5,1.2-1.2,1.2s-1.2-0.5-1.2-1.2s0.5-1.2,1.2-1.2C25,16.2,25.5,16.8,25.5,17.4z"/>
<path class="st1" d="M6.6,8.2c0,0.7,0.5,1.2,1.2,1.2S9,8.9,9,8.2S8.5,7,7.8,7S6.6,7.6,6.6,8.2z"/>
<path class="st1" d="M10.3,8.2c0,0.7,0.5,1.2,1.2,1.2c0.7,0,1.2-0.5,1.2-1.2c0-0.7-0.5-1.2-1.2-1.2C10.8,7,10.3,7.6,10.3,8.2z"/>
<path class="st1" d="M16.4,8.2c0,0.7-0.5,1.2-1.2,1.2c-0.7,0-1.2-0.5-1.2-1.2C14,7.6,14.5,7,15.2,7C15.8,7,16.4,7.6,16.4,8.2z"/>
<path class="st2" d="M11.9,15.3c0,0-0.6,7.8,7.8,7.8s9.4-3.9,9.4-7.3c0,0,0.3,5.8-2.4,7.3c0,0-1.1,4.2-1.8,5
	c-0.8,0.8-1.9,0.7-2.5-0.5c-0.6-1.1-0.6-2.2-4-2.7C15.1,24.5,10.3,19.9,11.9,15.3z"/>
</svg>
