<?xml version="1.0" encoding="utf-8"?>
<!-- Generator: Adobe Illustrator 28.0.0, SVG Export Plug-In . SVG Version: 6.00 Build 0)  -->
<svg version="1.1" id="图层_1" xmlns="http://www.w3.org/2000/svg" xmlns:xlink="http://www.w3.org/1999/xlink" x="0px" y="0px"
	 viewBox="0 0 90 90" style="enable-background:new 0 0 90 90;" xml:space="preserve">
<style type="text/css">
	.st0{fill:#FDDFB1;}
	.st1{fill:#6E6E96;}
	.st2{fill:#F0F0FF;}
	.st3{opacity:0.4;fill:#FFFFFF;enable-background:new    ;}
	.st4{opacity:0.2;fill:#BC842C;enable-background:new    ;}
	.st5{fill:#B4B7C9;}
	.st6{opacity:0.2;fill:#6E6E96;enable-background:new    ;}
	.st7{fill:#FF8A8A;}
	.st8{fill:#ABEEFF;}
</style>
<path class="st0" d="M74.9,63.8v12.6c0,2.5-2,4.5-4.5,4.5h-50c-2.5,0-4.5-2-4.5-4.5V63.8"/>
<path class="st1" d="M70.4,81.1h-50c-2.6,0-4.6-2.1-4.6-4.6V63.8H16v12.6c0,2.4,1.9,4.3,4.3,4.3h50c2.4,0,4.3-1.9,4.3-4.3V63.8H75
	v12.6C75,79,72.9,81.1,70.4,81.1z"/>
<path class="st0" d="M74.9,65v11.4c0,2.5-2,4.5-4.5,4.5h-50c-2.5,0-4.5-2-4.5-4.5V65C15.9,65,74.9,65,74.9,65z"/>
<path class="st2" d="M69.8,33.7c0,13.7-11.1,24.8-24.8,24.8c-13.7,0-24.8-11.1-24.8-24.8S31.4,8.9,45,8.9
	C58.7,8.9,69.8,20,69.8,33.7z"/>
<path class="st1" d="M45,59.8c-14.4,0-26.1-11.7-26.1-26.1C18.9,19.3,30.7,7.6,45,7.6c14.4,0,26.1,11.7,26.1,26.1S59.4,59.8,45,59.8
	z M45,10.3c-12.9,0-23.4,10.5-23.4,23.4S32.1,57.1,45,57.1c12.9,0,23.4-10.5,23.4-23.4C68.5,20.8,58,10.3,45,10.3z"/>
<path class="st3" d="M17.2,66.4h56.3v3.1H17.2L17.2,66.4z"/>
<path class="st4" d="M69.5,77H21.1c-2.4,0-4.3-1.7-4.3-3.8v3.5c0,2.1,2,3.8,4.3,3.8h48.4c2.4,0,4.3-1.7,4.3-3.8v-3.5
	C73.8,75.3,71.9,77,69.5,77z"/>
<path class="st1" d="M70.4,82.3h-50c-3.2,0-5.8-2.6-5.8-5.8V65c0-0.7,0.6-1.3,1.3-1.3h59c0.7,0,1.3,0.6,1.3,1.3v11.4
	C76.2,79.6,73.6,82.3,70.4,82.3z M17.2,66.4v10c0,1.7,1.4,3.1,3.1,3.1h50c1.7,0,3.1-1.4,3.1-3.1v-10H17.2z"/>
<path class="st5" d="M62.7,34c0,9.8-8,17.8-17.8,17.8c-9.8,0-17.8-8-17.8-17.8s8-17.8,17.8-17.8C54.7,16.3,62.7,24.2,62.7,34z"/>
<path class="st6" d="M45,23.7c8.3,0,15.2,5.9,16.6,13.8c0.2-1,0.3-2.1,0.3-3.1c0-9.4-7.6-16.9-16.9-16.9C35.6,17.4,28,25,28,34.3
	c0,1.1,0.1,2.1,0.3,3.1C29.8,29.6,36.7,23.7,45,23.7z"/>
<path class="st1" d="M44.9,53.2c-10.5,0-19.1-8.6-19.1-19.1c0-10.5,8.6-19.1,19.1-19.1C55.4,14.9,64,23.5,64,34
	C64,44.6,55.4,53.2,44.9,53.2z M44.9,17.6c-9.1,0-16.4,7.4-16.4,16.4c0,9.1,7.4,16.4,16.4,16.4c9.1,0,16.4-7.4,16.4-16.4
	S54,17.6,44.9,17.6z"/>
<path class="st6" d="M37.4,35.5c0,4.2,3.4,7.7,7.7,7.7s7.7-3.4,7.7-7.7s-3.4-7.7-7.7-7.7S37.4,31.3,37.4,35.5z"/>
<path class="st7" d="M45.3,33.8c0-2.8,12.8-4.8,21.4-4.9c8.6-0.1,13.4,1.8,13.4,4.6c0,2.8-4.8,5.5-13.4,5.5
	C58.1,39.2,45.3,36.6,45.3,33.8z"/>
<path class="st8" d="M44.6,33.7c0-2.8-12.9-4.6-21.4-4.5c-8.6,0.1-13.4,2-13.4,4.8c0,2.8,4.9,5.4,13.4,5.3
	C31.8,39.2,44.6,36.5,44.6,33.7z"/>
<path class="st1" d="M66.3,40.4c-4.3,0-9.7-0.6-14-1.6c-7.5-1.7-8.4-3.7-8.4-5c0-2.1,2.6-3.6,8.5-4.8c4.2-0.8,9.6-1.4,14.1-1.4
	c0.2,0,0.3,0,0.5,0c9.1,0,14.3,2.2,14.3,5.9c0,4.1-5.9,6.8-14.7,6.9C66.6,40.4,66.5,40.4,66.3,40.4z M46.7,33.9
	c0.5,0.5,2.3,1.5,6.9,2.5c4.1,0.9,8.8,1.4,12.7,1.4l0.3,0c4.8,0,7.8-0.9,9.4-1.6c1.7-0.7,2.7-1.7,2.7-2.6c0-1.3-3.1-3.2-11.6-3.2
	c-0.2,0-0.3,0-0.5,0c-4,0-8.9,0.5-12.8,1.2C48.6,32.5,47.1,33.5,46.7,33.9z"/>
<path class="st1" d="M22.9,40.6C14.3,40.6,8.5,38,8.5,34c0-3.8,5.3-6.1,14.7-6.1c0.2,0,0.3,0,0.5,0c4.5,0,9.8,0.5,13.9,1.2
	c5.8,1.1,8.3,2.5,8.4,4.6c0,1.3-0.9,3.3-8.5,5.1c-4.5,1.1-9.9,1.8-14.2,1.8C23.3,40.6,22.9,40.6,22.9,40.6z M23.7,30.5
	c-0.2,0-0.3,0-0.5,0c-8.8,0.1-12,2.1-12,3.4c0,1.6,3.8,4,11.7,4l0.3,0c3.8,0,8.8-0.6,12.9-1.6c4.7-1.1,6.6-2.2,7-2.7
	c-0.4-0.3-1.9-1.3-6.9-2.1C32.5,30.9,27.7,30.5,23.7,30.5z"/>
<path class="st2" d="M40.1,33.7c0,2.7,2.2,4.9,4.9,4.9c2.7,0,4.9-2.2,4.9-4.9c0-2.7-2.2-4.9-4.9-4.9C42.3,28.8,40.1,31,40.1,33.7z"
	/>
<path class="st1" d="M45,39.9c-3.4,0-6.2-2.8-6.2-6.2c0-3.4,2.8-6.2,6.2-6.2c3.4,0,6.2,2.8,6.2,6.2C51.3,37.1,48.5,39.9,45,39.9z
	 M45,30.1c-2,0-3.5,1.6-3.5,3.5c0,2,1.6,3.5,3.5,3.5s3.5-1.6,3.5-3.5C48.6,31.7,47,30.1,45,30.1z"/>
<path class="st2" d="M39.1,65h12.5v9H39.1L39.1,65z"/>
<path class="st1" d="M52.9,75.3H37.7V63.7h15.2L52.9,75.3L52.9,75.3z M40.4,72.6h9.8v-6.3h-9.8V72.6z"/>
</svg>
