<?xml version="1.0" encoding="utf-8"?>
<!-- Generator: Adobe Illustrator 28.0.0, SVG Export Plug-In . SVG Version: 6.00 Build 0)  -->
<svg version="1.1" id="图层_1" xmlns="http://www.w3.org/2000/svg" xmlns:xlink="http://www.w3.org/1999/xlink" x="0px" y="0px"
	 viewBox="0 0 32 32" style="enable-background:new 0 0 32 32;" xml:space="preserve">
<style type="text/css">
	.st0{fill:#FDD089;}
	.st1{opacity:0.24;fill:#FFFFFF;enable-background:new    ;}
	.st2{fill:#FFFFFF;}
	.st3{fill:#6E6E96;}
	.st4{fill:#FABE78;}
	.st5{fill:#FF9999;}
	.st6{fill:#F5F5F5;}
	.st7{opacity:0.15;fill:#6E6E96;enable-background:new    ;}
</style>
<path class="st0" d="M16.6,30.5L2,15.9V5.1h10.8l14.6,14.6L16.6,30.5z"/>
<path class="st1" d="M2.7,6.9h9.5l0.6-1.5L2.7,5.7V6.9z"/>
<path class="st2" d="M5.7,10.2c0,1,0.8,1.9,1.9,1.9s1.9-0.8,1.9-1.9c0-1-0.8-1.9-1.9-1.9S5.7,9.2,5.7,10.2L5.7,10.2z"/>
<path class="st3" d="M7.5,9c0.6,0,1.2,0.5,1.2,1.2c0,0.6-0.5,1.2-1.2,1.2s-1.2-0.5-1.2-1.2C6.4,9.6,6.9,9,7.5,9z M5,10.2
	c0,1.4,1.1,2.5,2.5,2.5s2.5-1.1,2.5-2.5S8.9,7.7,7.5,7.7S5,8.8,5,10.2z"/>
<path class="st4" d="M12.9,5.4c-0.7,1.3-1,2.8-1,4.3c0,4.5,3.1,8.2,7.3,9.1l0,0l0,0c0.6,0.1,1.3,0.2,1.9,0.2c1.3,0.3,2.4,1,0.8,2.5
	l3.5-3.6C25.5,18,12.9,5.4,12.9,5.4z M25.1,18.3l-3.2,3.2l-5.6,5.6L3.8,14.6V5.7H2.7v10.1l14,13.7L27,20.2L25.1,18.3z"/>
<path class="st3" d="M17.1,30L2.5,15.4c0.1,0.1,0.2,0.3,0.2,0.5V5.1c0,0.4-0.3,0.7-0.7,0.7h10.8c-0.2,0-0.4-0.1-0.5-0.2L27,20.2
	c-0.3-0.3-0.3-0.7,0-1l0,0L16.2,30C16.4,29.8,16.8,29.8,17.1,30L17.1,30z M27.9,19.2L13.3,4.6c-0.1-0.1-0.3-0.2-0.5-0.2H2
	c-0.4,0-0.7,0.3-0.7,0.7v10.8c0,0.2,0.1,0.4,0.2,0.5L16.2,31c0.3,0.3,0.7,0.3,1,0l0,0L28,20.2C28.2,19.9,28.2,19.5,27.9,19.2
	L27.9,19.2z"/>
<path class="st5" d="M14,9.6c0,4,3.2,7.2,7.2,7.2s7.2-3.2,7.2-7.2s-3.2-7.2-7.2-7.2S14,5.6,14,9.6z"/>
<path class="st1" d="M21.5,1.8c-4,0-7.2,3.2-7.2,7.2s3.2,7.2,7.2,7.2l0,0c-3.3,0-6-2.7-6-6.1S18.2,4,21.6,4s6.1,2.7,6.1,6.1
	c0,3.1-2.4,5.7-5.4,6c3.7-0.4,6.5-3.5,6.5-7.2C28.7,5,25.5,1.8,21.5,1.8z"/>
<path class="st3" d="M21.2,3c3.6,0,6.6,2.9,6.6,6.6c0,3.6-2.9,6.6-6.6,6.6c-3.6,0-6.6-2.9-6.6-6.6C14.7,5.9,17.6,3,21.2,3z
	 M13.3,9.6c0,4.4,3.6,7.9,7.9,7.9c4.4,0,7.9-3.6,7.9-7.9c0-4.4-3.6-7.9-7.9-7.9C16.9,1.6,13.3,5.2,13.3,9.6z"/>
<path class="st6" d="M24.7,8.6h-1.5c-0.5,0-0.8-0.4-0.8-0.8V6.4c0-0.5-0.4-0.8-0.8-0.8h-0.4c-0.5,0-0.8,0.4-0.8,0.8v1.4
	c0,0.5-0.4,0.8-0.8,0.8h-1.2c-0.5,0-0.8,0.4-0.8,0.8v0.4c0,0.5,0.4,0.8,0.8,0.8h1.2c0.5,0,0.8,0.4,0.8,0.8v1.3
	c0,0.5,0.4,0.8,0.8,0.8h0.4c0.5,0,0.8-0.4,0.8-0.8v-1.3c0-0.5,0.4-0.8,0.8-0.8h1.5c0.5,0,0.8-0.4,0.8-0.8V9.4
	C25.5,9,25.1,8.6,24.7,8.6z"/>
<path class="st7" d="M24.2,2.7c2,1.1,3.3,3.2,3.3,5.7c0,3.6-2.9,6.5-6.5,6.5c-3.4,0-6.2-2.6-6.5-5.9c0,0.2,0,0.4,0,0.6
	c0,4,3.2,7.2,7.2,7.2s7.2-3.2,7.2-7.2C29,6.4,27,3.7,24.2,2.7z"/>
</svg>
