<?xml version="1.0" encoding="utf-8"?>
<!-- Generator: Adobe Illustrator 28.0.0, SVG Export Plug-In . SVG Version: 6.00 Build 0)  -->
<svg version="1.1" id="图层_1" xmlns="http://www.w3.org/2000/svg" xmlns:xlink="http://www.w3.org/1999/xlink" x="0px" y="0px"
	 viewBox="0 0 33.6 32" style="enable-background:new 0 0 33.6 32;" xml:space="preserve">
<style type="text/css">
	.st0{fill:#F7B472;}
	.st1{fill:#6E6E96;}
	.st2{fill:#FFFFFF;}
	.st3{fill:#FFF6C7;}
	.st4{fill:#FFE9B8;}
	.st5{fill:#F9E9CA;}
	.st6{fill:#EDBE74;}
	.st7{fill:#F9D691;}
	.st8{fill:#FABE78;}
	.st9{fill:#FDD089;}
	.st10{opacity:0.52;fill:#FABE78;enable-background:new    ;}
	.st11{opacity:0.15;fill:#6E6E96;enable-background:new    ;}
</style>
<path class="st0" d="M7.7,21.7c0,0.2,0.1,0.5,0.3,0.5c0.2,0,4,1.2,5.7,6.3c0,0,0,0,0,0.1c0.2,0.3,0.7,0.7,1.3,0.5l1-0.4
	c0.5-0.2,0.6-0.6,0.6-0.8v0c0-0.2-0.1-0.5-0.3-0.6c0,0,0,0,0,0c-1.2-1.6-4.4-5.4-8.2-5.9C8,21.3,7.8,21.4,7.7,21.7z M16.2,27
	c0.1,0,0.1,0.1,0.1,0.1C16.3,27.1,16.3,27,16.2,27z"/>
<path class="st1" d="M14.7,29.5c-0.6,0-1.1-0.4-1.3-0.8c0,0,0-0.1-0.1-0.1c-1.6-4.8-5.2-5.9-5.4-6c-0.5-0.1-0.7-0.6-0.6-1.1
	c0.1-0.5,0.5-0.8,1-0.7c3.9,0.5,7.3,4.4,8.5,6.1l0,0c0.2,0.2,0.3,0.5,0.3,0.8l0,0c0,0.2-0.1,0.8-0.8,1.2l-1,0.4
	C15,29.5,14.8,29.5,14.7,29.5z M8.2,21.7c0.2,0,4.2,1.3,6,6.5c0.1,0.1,0.2,0.3,0.5,0.3c0.1,0,0.1,0,0.2,0l1-0.4
	c0.2-0.1,0.3-0.3,0.3-0.4v0c0-0.1-0.1-0.2-0.1-0.3l0,0c0,0,0,0,0,0c0,0,0,0,0,0l0,0c0,0,0,0,0,0l0,0l0,0l0,0l0,0l0,0
	C14.9,25.9,11.8,22.2,8.2,21.7z"/>
<path class="st2" d="M8.2,3c0,0-1.2,0.6-1.9,1.7c-1,1.5-1.1,2.8-0.4,3.6c0,0,0,0,0,0.1c0.1,0.1,1.9,1.7,5.5-1.8
	c0.1-0.1,0.2-0.3,0.1-0.4c0-0.2-0.2-0.3-0.3-0.3c-0.1,0-1.3-0.3-2.4-0.2C8.9,5.3,9,4.8,9,4.4C9,4,9,3.7,8.9,3.3C8.8,3.1,8.7,3,8.6,3
	C8.5,2.9,8.3,2.9,8.2,3z"/>
<path class="st1" d="M7.3,9.3c-1,0-1.6-0.5-1.7-0.6c0,0-0.1-0.1-0.1-0.1c-0.8-1-0.6-2.5,0.4-4.2C6.7,3.2,8,2.6,8,2.6
	c0.2-0.1,0.5-0.1,0.8,0C9,2.7,9.2,2.9,9.3,3.1c0.1,0.4,0.2,0.8,0.2,1.2c0,0.3,0,0.5-0.1,0.8c1,0,1.9,0.2,1.9,0.3
	c0.4-0.4,0.9-0.3,1.3,0c0.4,0.4,0.3,0.9,0,1.3C12.4,6.9,12,7,11.7,6.9C10.1,8.5,8.6,9.3,7.3,9.3z M8.4,3.4c0,0-1.1,0.5-1.7,1.6
	c-0.8,1.3-1,2.4-0.5,3.1c0,0,0.4,0.3,1,0.3c0.8,0,2-0.4,3.8-2.1c0,0-0.9-0.2-1.8-0.2C9.2,6,9,6,8.9,6.1L8.2,6.1l0.2-0.6
	c0.1-0.4,0.2-0.7,0.2-1.1C8.6,4,8.5,3.7,8.4,3.4z"/>
<path class="st3" d="M7.9,5.8C7.9,5.8,7.9,5.8,7.9,5.8c-1.3,0.5-2,1.3-2,2.2l0-0.1c0,0,0,0.2,0,0.2c0,0.2,0.1,0.3,0.2,0.4
	c0.5,0.3,2.2,1.1,5.4-1.9c0.2,0.1,0.5-0.1,0.6-0.3s-0.1-0.5-0.3-0.6c-0.2,0-0.3,0-0.4,0.1C11.1,5.8,9.2,5.3,7.9,5.8z"/>
<path class="st1" d="M7.3,9.3L7.3,9.3C6.5,9.3,6,9.1,5.8,8.9C5.4,8.6,5.4,8.3,5.4,8.1l0-0.1c0-1.1,0.9-2,2.2-2.6c0,0,0,0,0.1,0
	c0.4-0.2,1-0.3,1.6-0.3c1,0,2,0.3,2,0.3C11.6,5.5,11.9,5.7,12,6c0.1,0.3,0,0.7-0.2,0.9C10.1,8.5,8.6,9.3,7.3,9.3z M6.3,8.2
	c0.1,0.1,0.4,0.3,0.9,0.3h0c0.7,0,2-0.4,3.8-2.2c0,0-0.9-0.2-1.8-0.2C8.8,6,8.4,6.1,8.1,6.2c0,0,0,0,0,0L8,6.3C7,6.7,6.3,7.3,6.3,8
	l0,0L6.3,8.2L6.3,8.2C6.3,8.1,6.3,8.2,6.3,8.2z"/>
<path class="st4" d="M5,6.9C4.8,6.9,4.7,6.9,4.6,7c0,0-0.8,1.1-0.9,2.4c-0.2,1.7,0.3,3,1.3,3.4c0,0,0,0,0.1,0c0.1,0,2.5,0.6,4-4.2
	c0-0.2,0-0.3-0.1-0.4C8.9,8.2,8.7,8.1,8.6,8.2c-0.1,0-1.3,0.3-2.2,0.9C6.2,8.4,6,7.7,5.3,7C5.2,6.9,5.1,6.9,5,6.9z M6.4,9.9
	C6.4,10,6.4,10,6.4,9.9c0,0.1,0,0.2-0.1,0.3C6.4,10.2,6.4,10.1,6.4,9.9z"/>
<path class="st1" d="M5.4,13.4c-0.3,0-0.4,0-0.5-0.1c0,0-0.1,0-0.1-0.1c-1.2-0.6-1.7-1.9-1.6-3.9c0.1-1.5,1-2.6,1-2.7
	c0.2-0.2,0.4-0.3,0.7-0.4c0.3,0,0.5,0.1,0.7,0.3c0.5,0.6,0.8,1.2,1,1.7C7.5,8,8.4,7.8,8.5,7.7c0.3-0.1,0.7,0,0.9,0.3
	c0.2,0.2,0.3,0.6,0.2,0.9C8.3,12.8,6.4,13.4,5.4,13.4z M5.2,12.5c0,0,0.1,0,0.2,0c0.6,0,2.1-0.4,3.2-3.9c0,0-1.2,0.3-2.1,0.8L6,9.8
	L5.9,9.2C5.8,8.7,5.6,7.9,5,7.3c0,0-0.7,1-0.8,2.2C4,11.1,4.4,12.1,5.2,12.5z M6.8,10.5L6,10c0,0,0,0,0,0c0,0,0,0,0,0c0,0,0,0,0,0
	c0,0,0,0,0-0.1l0.8,0l0.1,0c0,0,0,0.1,0,0.1C6.9,10.2,6.8,10.3,6.8,10.5z"/>
<path class="st5" d="M8.6,8.2c-0.1,0-2,0.5-2.9,1.5c0,0,0,0,0,0c-0.6,0.7-0.9,1.4-0.9,2.1c0,0.3,0.1,0.6,0.2,0.8c0,0,0,0,0-0.1
	c0,0,0.1,0.2,0.1,0.2C5,12.9,5.1,12.9,5.3,13c0.6,0.1,2.5,0,3.8-4.2c0-0.2,0-0.3-0.1-0.4C8.9,8.2,8.7,8.1,8.6,8.2z"/>
<path class="st1" d="M5.5,13.4C5.5,13.4,5.5,13.4,5.5,13.4c-0.1,0-0.2,0-0.3,0c-0.1,0-0.5-0.1-0.7-0.5l-0.1-0.1
	c-0.1-0.3-0.2-0.6-0.2-1c0-0.7,0.4-1.6,1-2.3c0,0,0,0,0-0.1c1-1.1,3-1.6,3.2-1.7c0.3-0.1,0.7,0,0.9,0.3c0.2,0.2,0.3,0.6,0.2,0.9
	C8.3,12.8,6.4,13.4,5.5,13.4z M5.3,12.5c0,0,0.1,0,0.1,0c0.6,0,2.1-0.4,3.2-3.9C8.7,8.6,6.8,9,6,10c0,0,0,0,0,0l0,0
	c-0.5,0.6-0.8,1.2-0.8,1.8c0,0.2,0,0.4,0.1,0.6l0,0C5.3,12.4,5.3,12.5,5.3,12.5C5.3,12.5,5.3,12.5,5.3,12.5z"/>
<path class="st6" d="M7.4,11.5c-0.1,0-1.1,0.7-1.8,1.6c-0.3-0.5-0.8-1.2-1.7-1.6c-0.2-0.1-0.5,0-0.6,0.2c0,0,0,0,0,0.1
	c0,0.1-0.4,1.3,0,2.6C3.6,16,4.5,17,5.6,17.1c0,0,0,0,0.1,0c0.1,0,2.5-0.2,2.4-5.3c0-0.3-0.2-0.4-0.5-0.4
	C7.5,11.4,7.4,11.4,7.4,11.5z"/>
<path class="st1" d="M5.6,17.6C5.6,17.6,5.6,17.6,5.6,17.6c-1.4-0.1-2.4-1.2-2.9-3.1c-0.4-1.5,0-2.8,0-2.8c0.1-0.3,0.3-0.5,0.5-0.6
	c0.2-0.1,0.5-0.1,0.8,0c0.6,0.3,1.1,0.7,1.5,1.3c0.7-0.7,1.4-1.2,1.5-1.2c0.3-0.2,0.6-0.2,0.9,0c0.3,0.2,0.5,0.4,0.5,0.8
	c0.1,2.2-0.3,3.9-1.2,4.9C6.6,17.5,5.8,17.6,5.6,17.6C5.7,17.6,5.7,17.6,5.6,17.6z M3.7,11.9c0,0-0.3,1.1,0,2.3
	c0.4,1.5,1.1,2.4,2,2.5l0,0c0.1,0,2.1-0.2,2-4.8c0,0-1,0.6-1.7,1.5l-0.4,0.5l-0.3-0.6C4.8,12.6,4.3,12.2,3.7,11.9z"/>
<path class="st4" d="M7.4,11.5c-0.1,0-1.8,1.1-2.3,2.4c0,0,0,0,0,0c-0.2,0.5-0.3,1-0.3,1.4c0,0.6,0.2,1.2,0.6,1.5l0,0
	c0,0,0.1,0.1,0.1,0.1c0.1,0.1,0.2,0.1,0.4,0.1C6.4,17,8.2,16.2,8,11.8c0-0.2-0.1-0.3-0.2-0.4C7.7,11.4,7.5,11.4,7.4,11.5z"/>
<path class="st1" d="M5.8,17.9l-0.5-0.5c-0.1,0-0.1-0.1-0.2-0.2c0,0-0.1-0.1-0.1-0.1c-0.5-0.4-0.7-1.1-0.7-1.8c0-0.5,0.1-1,0.3-1.6
	c0,0,0,0,0-0.1c0.5-1.4,2.4-2.6,2.4-2.7c0.3-0.2,0.6-0.2,0.9,0c0.3,0.2,0.5,0.4,0.5,0.8c0.1,2-0.2,3.5-0.9,4.5
	c-0.6,0.9-1.3,1.1-1.6,1.2c0,0-0.1,0-0.1,0C5.8,17.6,5.8,17.9,5.8,17.9z M4.9,16.9h0.3H4.9z M5.7,16.6L5.7,16.6
	c0.2,0,0.7-0.2,1.1-0.8c0.6-0.8,0.8-2.2,0.8-4c0,0-1.6,1-2.1,2.2c0,0,0,0,0,0l0,0c-0.2,0.5-0.3,0.9-0.3,1.3
	C5.2,15.9,5.4,16.3,5.7,16.6L5.7,16.6C5.7,16.6,5.7,16.6,5.7,16.6z"/>
<path class="st7" d="M7.4,14.8c0,0.1-0.7,1.1-0.9,2.2c-0.5-0.4-1.3-0.7-2.2-0.7c-0.1,0-0.3,0.1-0.3,0.2c-0.1,0.1-0.1,0.2-0.1,0.4
	c0,0.1,0.2,1.3,1.1,2.4C6,20.4,7.1,21,8.2,20.6c0,0,0,0,0.1,0c0.1,0,2.2-1.3-0.1-5.8c-0.1-0.1-0.2-0.2-0.4-0.2
	C7.6,14.5,7.5,14.6,7.4,14.8z M6.4,17.9C6.4,17.9,6.4,17.9,6.4,17.9C6.4,17.9,6.4,17.9,6.4,17.9z"/>
<path class="st1" d="M7.5,21.2L7.5,21.2c-1,0-2.1-0.6-3-1.8c-1-1.2-1.1-2.5-1.2-2.6c0-0.3,0-0.5,0.2-0.7c0.2-0.2,0.4-0.3,0.7-0.3
	l0,0c0.7,0,1.3,0.2,1.9,0.5C6.5,15.3,7,14.6,7,14.5c0.2-0.3,0.5-0.4,0.8-0.4c0.3,0,0.6,0.2,0.8,0.5c1,2,1.3,3.6,0.9,4.9
	c-0.3,1-0.9,1.4-1.1,1.5c0,0-0.1,0-0.1,0.1C8.1,21.1,7.8,21.2,7.5,21.2z M4.2,16.7c0,0,0.2,1.2,1,2.1c0.8,1,1.6,1.5,2.3,1.5h0
	c0.2,0,0.3,0,0.5-0.1c0.1,0,1.8-1.1-0.3-5.2c0,0-0.6,1-0.9,2l-0.1,0.7l-0.6-0.4C5.6,16.9,4.9,16.7,4.2,16.7z M5.9,17.9
	C5.9,17.9,5.9,17.9,5.9,17.9l0.9-0.1c0,0,0,0,0,0C6.8,17.9,5.9,17.9,5.9,17.9z"/>
<path class="st4" d="M7.4,14.8c0,0.1-1,1.6-1,3c0,0.1,0,0.1,0,0.2c0,0,0,0,0,0c0.1,1.3,0.6,2.3,1.5,2.6c0,0-0.1,0-0.1,0
	c0,0,0.2,0.1,0.2,0.1c0.2,0.1,0.3,0,0.4-0.1c0.4-0.3,1.8-1.8-0.2-5.7c-0.1-0.1-0.2-0.2-0.4-0.2C7.6,14.5,7.5,14.6,7.4,14.8z"/>
<path class="st1" d="M9.1,21.4l-1.1-0.4C8,21,7.9,21,7.8,21c0,0-0.1,0-0.1-0.1c-1-0.4-1.7-1.4-1.8-2.9c0,0,0-0.1,0-0.1
	c0-0.1,0-0.1,0-0.2c0-1.5,1.1-3.1,1.1-3.2c0.2-0.3,0.5-0.4,0.8-0.4c0.3,0,0.6,0.2,0.8,0.5c0.9,1.8,1.2,3.3,1.1,4.5
	c-0.2,1-0.7,1.5-1,1.8C8.7,20.8,9.1,21.4,9.1,21.4z M7.7,20.6l-0.2,0.2L7.7,20.6z M8.1,20.1L8.1,20.1c0.2-0.1,0.5-0.4,0.7-1.2
	c0.2-1-0.2-2.3-1-3.9c0,0-1,1.5-1,2.7c0,0,0,0.1,0,0.1c0,0,0,0,0,0l0,0C6.9,19,7.3,19.8,8.1,20.1L8.1,20.1C8,20.1,8.1,20.1,8.1,20.1
	z"/>
<path class="st8" d="M9.4,17.6c-0.2,0-0.3,0.1-0.3,0.3c0,0.1-0.4,1.1-0.4,2.2c0,0.1,0,0.1,0,0.2c-0.6-0.2-1.4-0.4-2.3-0.2
	c-0.1,0-0.2,0.1-0.3,0.2c-0.1,0.1-0.1,0.3,0,0.4c0,0,0.5,1.2,1.6,2c1.4,1,2.7,1.2,3.6,0.6c0,0,0,0,0.1,0c0.1-0.1,1.8-1.8-1.5-5.6
	C9.8,17.7,9.6,17.6,9.4,17.6z"/>
<path class="st1" d="M10.2,24.2L10.2,24.2c-0.8,0-1.8-0.4-2.7-1.1c-1.2-0.9-1.7-2.1-1.8-2.2c-0.2-0.5,0-1,0.5-1.2c0,0,0.1,0,0.1,0
	c0.6-0.2,1.3-0.2,2,0c0.1-1,0.3-1.8,0.4-1.9c0.1-0.3,0.4-0.5,0.7-0.6c0.3-0.1,0.6,0,0.9,0.3c1.5,1.7,2.2,3.2,2.2,4.5
	c0,1.1-0.6,1.6-0.7,1.7c0,0-0.1,0.1-0.1,0.1C11.2,24.1,10.7,24.2,10.2,24.2z M7.3,20.5c-0.3,0-0.5,0-0.8,0.1c0,0,0.5,1.1,1.5,1.8
	c0.8,0.6,1.6,0.9,2.2,0.9h0c0.3,0,0.6-0.1,0.9-0.3c0.1-0.1,1.5-1.5-1.6-5c0,0-0.3,1-0.3,2c0,0.1,0,0.1,0,0.2l0,0.7l-0.6-0.2
	C8.2,20.6,7.8,20.5,7.3,20.5z"/>
<path class="st9" d="M9.4,17.6c-0.2,0-0.3,0.1-0.3,0.3c0,0.1-0.4,1.1-0.4,2.2c0,0.4,0,0.8,0.2,1.1c0,0,0,0,0,0
	c0.4,1.3,1.2,2,2.1,2.1l-0.1,0c0,0,0.2,0,0.2,0c0.2,0,0.3,0,0.4-0.2c0.3-0.4,1.3-2.1-1.7-5.5C9.8,17.7,9.6,17.6,9.4,17.6z"/>
<path class="st1" d="M11.3,23.9c0,0-0.1,0-0.1,0l-0.1,0c-1.1-0.1-2-1-2.5-2.4c0,0,0-0.1,0-0.1c-0.1-0.4-0.2-0.8-0.2-1.3
	c0-1.1,0.3-2.2,0.4-2.3c0.1-0.3,0.4-0.5,0.7-0.6c0.3-0.1,0.7,0,0.9,0.3c1.3,1.5,2,2.8,2.2,4.1c0.1,1-0.3,1.7-0.5,2
	C11.8,23.6,11.6,23.9,11.3,23.9z M11.1,22.9L11.1,22.9c0.2-0.1,0.4-0.6,0.4-1.3c-0.1-1-0.8-2.2-1.9-3.5c0,0-0.3,1-0.3,2
	c0,0.4,0,0.7,0.1,1c0,0,0,0,0,0l0,0C9.7,22.2,10.4,22.9,11.1,22.9L11.1,22.9L11.1,22.9L11.1,22.9z"/>
<path class="st0" d="M9.7,25.2c-0.1,0-0.5,0.2-0.6,0.5c0,0.1-0.1,0.2-0.1,0.3c0,0.2,0,0.3,0.2,0.5l0.6,0.9c0.4,0.6,1,0.5,1.3,0.3
	c0,0,0,0,0,0c4.2-3.3,8-2.2,8.2-2.1c0.2,0.1,0.5-0.1,0.6-0.3c0.1-0.2,0-0.4-0.2-0.5C16.3,23,11.6,24.5,9.7,25.2z"/>
<path class="st1" d="M10.6,28.3c-0.5,0-0.9-0.2-1.2-0.6l-0.6-0.9c-0.2-0.3-0.3-0.5-0.3-0.8c0-0.2,0-0.3,0.1-0.4
	c0.2-0.5,0.7-0.7,0.9-0.8c1.3-0.5,3.8-1.3,6.4-1.3c1.5,0,2.9,0.3,4,0.8c0.4,0.2,0.6,0.7,0.4,1.1c-0.1,0.3-0.5,0.6-0.8,0.6
	c-0.1,0-0.2,0-0.3,0c0,0-0.7-0.2-1.7-0.2c-1.5,0-3.7,0.4-6.1,2.3c0,0-0.1,0-0.1,0.1C11.2,28.2,10.9,28.3,10.6,28.3z M16,24.4
	c-2.5,0-4.9,0.8-6.1,1.2l0,0c-0.1,0-0.2,0.1-0.3,0.2c0,0,0,0.1,0,0.1c0,0.1,0,0.2,0.1,0.3l0.6,0.9c0.1,0.2,0.2,0.2,0.4,0.2
	c0.1,0,0.2,0,0.3-0.1c2.6-2,5-2.5,6.6-2.5c1.1,0,1.9,0.2,2,0.2C18.5,24.6,17.3,24.4,16,24.4z"/>
<path class="st2" d="M29,9.2c-0.7,0.6-1.1,1.4-1.2,2c-0.9-0.7-2.1-1.1-2.1-1.1c-0.2-0.1-0.5,0.1-0.6,0.3c0,0.1,0,0.2,0,0.2
	c1.1,4.8,3.3,4.6,3.6,4.5c0,0,0.1,0,0.1,0c1-0.4,1.6-1.6,1.6-3.3c0-1.4-0.7-2.5-0.7-2.5c-0.1-0.1-0.2-0.2-0.3-0.2
	C29.2,9.1,29.1,9.1,29,9.2z"/>
<path class="st1" d="M28.5,15.6c-0.8,0-2.9-0.5-3.9-4.9c-0.1-0.3,0-0.7,0.3-0.9c0.2-0.2,0.6-0.3,0.9-0.2c0.1,0,0.9,0.3,1.7,0.8
	c0.3-0.6,0.7-1.2,1.2-1.6c0.2-0.2,0.5-0.2,0.7-0.2c0.3,0,0.5,0.2,0.6,0.4c0,0,0.7,1.2,0.7,2.7c0,2-0.7,3.3-1.9,3.7
	c-0.1,0-0.1,0-0.2,0C28.7,15.6,28.6,15.6,28.5,15.6z M25.5,10.5c0.9,3.9,2.5,4.2,3,4.2c0.1,0,0.1,0,0.1,0c0,0,0,0,0,0
	c0.8-0.3,1.3-1.3,1.3-2.9c0-1.3-0.6-2.3-0.6-2.3c-0.5,0.4-0.9,1-1.1,1.8L28,12l-0.5-0.4C26.7,10.9,25.6,10.5,25.5,10.5z"/>
<path class="st3" d="M25.2,10.2c-0.1,0.1-0.2,0.3-0.1,0.4c1,4.3,2.9,4.6,3.4,4.5c0.2,0,0.3,0,0.3-0.2l0.1-0.2c0,0,0,0,0,0
	c0.2-0.3,0.3-0.6,0.3-1c0-0.6-0.3-1.3-0.7-1.9c0,0,0,0,0,0c-0.8-1.1-2.7-1.8-2.8-1.8C25.5,10,25.3,10.1,25.2,10.2z"/>
<path class="st1" d="M28.4,15.6c-0.8,0-2.8-0.5-3.8-4.9c-0.1-0.3,0-0.6,0.3-0.9c0.2-0.2,0.6-0.3,0.9-0.2c0.1,0,2.1,0.7,3,2
	c0,0,0,0.1,0.1,0.1c0.5,0.7,0.8,1.5,0.8,2.2c0,0.4-0.1,0.8-0.3,1.2l-0.1,0.1C29,15.6,28.7,15.6,28.4,15.6
	C28.5,15.6,28.5,15.6,28.4,15.6z M28.9,14.9v0.4V14.9z M25.5,10.5c0.9,3.9,2.5,4.2,2.9,4.2c0,0,0,0,0,0l0-0.1l0,0c0,0,0,0,0,0
	c0.1-0.2,0.2-0.5,0.2-0.7c0-0.5-0.2-1.1-0.6-1.7l0-0.1c0,0,0,0,0,0C27.3,11.1,25.5,10.5,25.5,10.5z"/>
<path class="st4" d="M26.1,13.4c-0.2,0-0.3,0.2-0.3,0.3c-0.3,1.1-0.4,2-0.4,2.7c0,2.1,1,2.8,1.3,2.9c0.1,0.1,0.2,0.1,0.3,0.1
	c0,0,0,0-0.1,0c1.1,0.1,2.1-0.6,3-2.2c0.6-1.2,0.6-2.5,0.6-2.5c0-0.1-0.1-0.3-0.2-0.3c-0.1-0.1-0.2-0.1-0.4-0.1
	c-0.9,0.2-1.6,0.7-2,1.2c-0.5-1-1.3-1.9-1.4-2C26.5,13.4,26.3,13.3,26.1,13.4z"/>
<path class="st1" d="M27.3,19.9c-0.1,0-0.2,0-0.3,0l0,0l0,0c-0.1,0-0.3-0.1-0.4-0.1c-0.5-0.2-1.6-1.1-1.6-3.4c0-0.8,0.1-1.8,0.4-2.8
	c0.1-0.3,0.3-0.6,0.6-0.6c0.3-0.1,0.7,0,0.9,0.2c0.1,0.1,0.7,0.7,1.2,1.5c0.5-0.4,1.1-0.7,1.8-0.9c0.3-0.1,0.5,0,0.7,0.2
	c0.2,0.2,0.3,0.4,0.4,0.7c0,0.1,0.1,1.4-0.6,2.8C29.5,19,28.4,19.9,27.3,19.9z M27.1,19c0.9,0.1,1.8-0.6,2.5-1.9
	c0.6-1.1,0.5-2.3,0.5-2.3c-0.7,0.1-1.3,0.5-1.8,1l-0.5,0.5l-0.3-0.6c-0.4-1-1.2-1.8-1.3-1.8c-0.3,1-0.4,1.8-0.4,2.6
	c0,1.8,0.8,2.4,1.1,2.5C27,18.9,27.1,19,27.1,19C27.1,19,27.1,19,27.1,19z"/>
<path class="st5" d="M26.1,13.4c-0.2,0-0.3,0.2-0.3,0.3c-1.2,4.3,0.4,5.4,0.9,5.6c0.1,0.1,0.3,0.1,0.4,0l0.1-0.1c0,0,0,0,0,0
	c0.7-0.4,1-1.1,1-2.2c0-0.2,0-0.4,0-0.6c0,0,0,0,0,0c0,0,0,0,0-0.1c-0.2-1.4-1.6-2.8-1.6-2.9C26.5,13.4,26.3,13.3,26.1,13.4z"/>
<path class="st1" d="M27,19.8c-0.2,0-0.3-0.1-0.4-0.1c-0.3-0.2-1-0.6-1.3-1.6c-0.4-1.1-0.4-2.7,0.1-4.6c0.1-0.3,0.3-0.6,0.6-0.6
	c0.3-0.1,0.7,0,0.9,0.2c0.2,0.2,1.6,1.6,1.8,3.1c0,0,0,0.1,0,0.1c0,0.2,0,0.5,0,0.7c0,1.2-0.4,2.1-1.2,2.5l-0.1,0.1
	C27.3,19.8,27.1,19.8,27,19.8z M27.3,19.3v0.3V19.3z M26.3,13.8c-0.5,1.7-0.5,3.1-0.2,4c0.3,0.7,0.7,1,0.8,1.1l0.1,0l0,0
	c0,0,0.1,0,0.1-0.1c0.5-0.3,0.7-0.9,0.7-1.7c0-0.2,0-0.4,0-0.6l0-0.1C27.6,15.4,26.7,14.3,26.3,13.8z"/>
<path class="st6" d="M25,16.9c-2.9,4.2-1,5.7-0.9,5.7c0,0,0,0,0.1,0c1,0.5,2.2,0.1,3.5-1.1c1-0.9,1.4-2.1,1.4-2.2
	c0.1-0.2-0.1-0.5-0.3-0.6c0,0,0,0-0.1,0c-0.9-0.1-1.7,0.1-2.3,0.4c-0.1-1.1-0.6-2.2-0.6-2.3c-0.1-0.1-0.2-0.2-0.4-0.3
	C25.3,16.6,25.1,16.7,25,16.9z"/>
<path class="st1" d="M25.1,23.3c-0.4,0-0.8-0.1-1.1-0.3c0,0-0.1,0-0.1-0.1c-0.1-0.1-2.4-1.8,0.8-6.4c0.2-0.3,0.5-0.4,0.8-0.4
	c0.3,0,0.6,0.2,0.7,0.5c0,0.1,0.4,0.9,0.6,1.8c0.6-0.2,1.3-0.3,2-0.2c0.3,0,0.5,0.2,0.6,0.4c0.1,0.2,0.2,0.5,0.1,0.7
	c0,0.1-0.4,1.4-1.5,2.4C27,22.8,26,23.3,25.1,23.3z M25.4,17.1c-2.6,3.8-1,5.1-1,5.1c0.8,0.4,1.9,0.1,3-1c0.9-0.8,1.2-2,1.3-2
	c-0.7-0.1-1.4,0-2,0.4L26,19.9L26,19.3C25.9,18.2,25.4,17.2,25.4,17.1z"/>
<path class="st4" d="M25,16.9c-2.5,3.6-1.4,5.2-1,5.6c0.1,0.1,0.2,0.2,0.4,0.1l0.2,0c0,0,0,0,0,0c0.9-0.2,1.6-1,1.8-2.3c0,0,0,0,0,0
	c0-0.2,0.1-0.4,0.1-0.6c0-1.2-0.6-2.6-0.6-2.6c-0.1-0.1-0.2-0.2-0.4-0.3C25.3,16.6,25.1,16.7,25,16.9z"/>
<path class="st1" d="M24.3,23.1c-0.3,0-0.5-0.2-0.6-0.3c-0.3-0.3-0.7-0.9-0.7-1.9c0-1.2,0.6-2.6,1.7-4.3c0.2-0.3,0.5-0.4,0.8-0.4
	c0.3,0,0.6,0.2,0.7,0.5c0,0.1,0.7,1.5,0.7,2.8c0,0.3,0,0.5-0.1,0.7l0,0c0,0,0,0,0,0.1c-0.3,1.4-1.1,2.4-2.2,2.6l-0.1,0
	C24.4,23.1,24.4,23.1,24.3,23.1z M24.6,22.8V23V22.8z M25.4,17.1c-1,1.4-1.5,2.7-1.5,3.7c0,0.7,0.3,1.1,0.4,1.3l0.1,0l0,0
	c0,0,0.1,0,0.1,0c0.7-0.2,1.2-0.9,1.4-2l0,0c0,0,0,0,0,0c0-0.2,0-0.3,0-0.5C26,18.4,25.4,17.1,25.4,17.1z"/>
<path class="st7" d="M23.3,19.3c-2.9,1.7-3.4,3.2-3.4,4c0,0.3,0.1,0.5,0.1,0.7c0,0.1,0.1,0.2,0.1,0.2c0,0,0,0,0,0
	c0.7,0.9,2,1.1,3.6,0.5c1.3-0.4,2.1-1.4,2.2-1.4c0.1-0.1,0.1-0.2,0.1-0.4c0-0.1-0.1-0.2-0.2-0.3c-0.8-0.5-1.6-0.6-2.3-0.6
	C24,21,24,19.7,24,19.7v0c0-0.2-0.1-0.3-0.2-0.4C23.6,19.2,23.4,19.2,23.3,19.3z M22.7,22.2c-0.1,0-0.1,0-0.2,0.1
	C22.6,22.2,22.6,22.2,22.7,22.2z M20.3,24.3C20.3,24.3,20.3,24.3,20.3,24.3C20.3,24.3,20.3,24.3,20.3,24.3z"/>
<path class="st1" d="M22.1,25.4c-1,0-1.8-0.3-2.3-1l0,0l0,0c-0.1-0.1-0.1-0.2-0.2-0.3c-0.1-0.2-0.1-0.5-0.1-0.8
	c0-1.1,0.6-2.7,3.6-4.4c0.3-0.2,0.6-0.2,0.9,0c0.3,0.2,0.5,0.5,0.5,0.8c0,0,0,1-0.3,1.9c0.6,0.1,1.2,0.2,1.9,0.6
	c0.2,0.1,0.4,0.4,0.4,0.6c0,0.3,0,0.5-0.2,0.7c-0.1,0.1-1,1.1-2.4,1.5C23.2,25.3,22.6,25.4,22.1,25.4z M20.5,23.9
	c0.3,0.4,0.9,0.6,1.6,0.6c0.5,0,1-0.1,1.6-0.3c1.2-0.4,2-1.3,2-1.3c-0.7-0.4-1.4-0.5-1.9-0.5c0,0-0.1,0-0.1,0l-0.7,0l0.2-0.6
	c0.4-1,0.4-2.2,0.4-2.2c-2.7,1.6-3.2,3-3.2,3.7C20.4,23.5,20.4,23.7,20.5,23.9C20.5,23.9,20.5,23.9,20.5,23.9
	C20.5,23.9,20.5,23.9,20.5,23.9z M20.5,23.9l0,0.1L20.5,23.9L20.5,23.9C20.5,23.9,20.5,23.9,20.5,23.9z M20.5,23.9L20.5,23.9
	L20.5,23.9L20.5,23.9L20.5,23.9L20.5,23.9C20.5,23.9,20.5,23.9,20.5,23.9L20.5,23.9C20.5,23.9,20.5,23.9,20.5,23.9L20.5,23.9
	L20.5,23.9L20.5,23.9L20.5,23.9L20.5,23.9L20.5,23.9C20.5,23.9,20.5,23.9,20.5,23.9z M22.7,22.6l-0.4-0.8c0.1-0.1,0.2-0.1,0.3-0.1
	L22.7,22.6C22.8,22.6,22.7,22.6,22.7,22.6z"/>
<path class="st4" d="M23.3,19.3c-3.8,2.2-3.5,4.1-3.3,4.7c0.1,0.2,0.1,0.2,0.3,0.3l0.2,0c0,0,0,0,0,0c0,0,0,0,0,0
	c0.9,0.2,1.9-0.3,2.6-1.4c0,0,0,0,0,0c0.8-1.1,0.9-3.1,0.9-3.2v0c0-0.2-0.1-0.3-0.2-0.4C23.6,19.2,23.4,19.2,23.3,19.3z"/>
<path class="st1" d="M20.9,24.7c-0.2,0-0.3,0-0.5-0.1l-0.2,0c-0.5-0.1-0.6-0.4-0.6-0.6c-0.1-0.3-0.3-1.1,0.2-2
	c0.5-1.1,1.6-2.2,3.3-3.2c0.3-0.2,0.6-0.2,0.9,0c0.3,0.2,0.5,0.5,0.5,0.8c0,0.2,0,2.3-0.9,3.5c0,0,0,0,0,0.1
	C22.7,24.2,21.8,24.7,20.9,24.7z M20,24.2c0,0.2,0.2,0.4,0.3,0.4l0.1-0.4L20,24.2z M20.5,23.8l0,0.2L20.5,23.8z M20.6,23.8
	c0.7,0.1,1.5-0.3,2.1-1.2l0,0c0,0,0,0,0,0c0.6-0.8,0.7-2.2,0.7-2.9c-1.5,0.9-2.5,1.8-3,2.8c-0.3,0.7-0.2,1.2-0.1,1.3L20.6,23.8
	L20.6,23.8C20.6,23.8,20.6,23.8,20.6,23.8z"/>
<path class="st8" d="M20.2,20.9c-4.9,1.4-4.4,3.8-4.3,3.9c0,0,0,0,0,0.1c0.4,1,1.6,1.5,3.4,1.4c1.4-0.1,2.4-0.8,2.5-0.8
	c0.1-0.1,0.2-0.2,0.2-0.4c0-0.1,0-0.2-0.1-0.3c-0.7-0.7-1.4-1-2-1.1c0.7-0.9,1-2.1,1-2.2c0.1-0.2-0.1-0.5-0.3-0.6
	C20.4,20.8,20.3,20.8,20.2,20.9z"/>
<path class="st1" d="M18.9,26.7c-1.7,0-2.9-0.6-3.4-1.7c0,0,0-0.1,0-0.1c0-0.1-0.6-2.9,4.7-4.4c0.1,0,0.2,0,0.2,0
	c0.2,0,0.5,0.1,0.6,0.3c0.2,0.2,0.3,0.4,0.3,0.6c0,0.1,0,0.2,0,0.2c0,0.1-0.3,1-0.7,1.8c0.6,0.2,1.2,0.6,1.7,1.1
	c0.2,0.2,0.3,0.5,0.2,0.7c0,0.3-0.2,0.5-0.4,0.6c0,0-1.2,0.8-2.7,0.9C19.2,26.7,19.1,26.7,18.9,26.7z M20.4,21.3
	c-4.4,1.2-4,3.2-4,3.3c0.3,0.8,1.2,1.2,2.6,1.2c0.1,0,0.2,0,0.4,0c1.3-0.1,2.2-0.7,2.2-0.7c-0.5-0.5-1.1-0.8-1.8-1L19,23.9l0.4-0.6
	C20.1,22.5,20.4,21.3,20.4,21.3z"/>
<path class="st9" d="M20.2,20.9C16,22,15.8,24,15.9,24.5c0,0.2,0.1,0.3,0.2,0.3l0.2,0.1l0,0c0,0,0,0,0,0c0.8,0.4,1.9,0.2,2.9-0.6
	c0,0,0,0,0,0c1.1-0.9,1.6-2.8,1.6-2.9c0,0,0-0.1,0-0.1c0-0.1,0-0.2-0.1-0.3C20.6,20.9,20.4,20.8,20.2,20.9z"/>
<path class="st1" d="M17.1,25.6C17.1,25.6,17.1,25.6,17.1,25.6c-0.4,0-0.7-0.1-1.1-0.2l-0.2-0.1c-0.4-0.2-0.5-0.6-0.5-0.7
	c0-0.4,0-1.1,0.7-1.9c0.8-0.9,2.1-1.7,4-2.2c0.1,0,0.2,0,0.2,0c0.2,0,0.5,0.1,0.6,0.3c0.2,0.2,0.3,0.4,0.3,0.6c0,0.1,0,0.2,0,0.2
	c0,0.1-0.6,2.2-1.8,3.1c0,0,0,0-0.1,0C18.6,25.3,17.8,25.6,17.1,25.6z M15.8,24.9h0.4H15.8z M16.6,24.6c0.6,0.2,1.5,0,2.3-0.6l0,0
	c0,0,0,0,0,0c0.8-0.7,1.3-2.1,1.5-2.6c-1.7,0.5-2.9,1.1-3.6,1.9c-0.5,0.6-0.5,1.1-0.5,1.3l0.1,0l0,0.1l0-0.1
	C16.4,24.5,16.6,24.6,16.6,24.6z"/>
<path class="st9" d="M19.8,6.4c0.6-0.4,1-0.2,1,0.6l-0.1,2.2c0,0.7,0.4,1.7,1,2.1l1.8,1.3c0.6,0.4,0.5,0.9-0.2,1.1l-2.2,0.6
	c-0.7,0.2-1.4,0.9-1.7,1.6L18.7,18c-0.2,0.7-0.7,0.7-1.1,0.1l-1.2-1.9c-0.4-0.6-1.3-1.1-2-1.1l-2.2,0c-0.7,0-0.9-0.5-0.5-1l1.4-1.8
	c0.4-0.6,0.6-1.6,0.4-2.3L12.7,8c-0.2-0.7,0.2-1,0.8-0.8l2.1,0.8c0.7,0.3,1.7,0.1,2.3-0.3C17.9,7.6,19.8,6.4,19.8,6.4z"/>
<path class="st4" d="M23.4,12.6L22,11.5c0.2,0.3,0.4,0.5,0.6,0.7l1.2,0.9C23.7,12.9,23.6,12.7,23.4,12.6z M19.7,6.3l-1.8,1.3
	c-0.6,0.4-1.6,0.5-2.3,0.3l-2.1-0.8c-0.7-0.3-1.1,0.1-0.8,0.8l0.7,2.1c0.2,0.7,0,1.7-0.4,2.3l-1.4,1.8c-0.4,0.6-0.2,1,0.5,1l0.4,0
	c0,0,0,0,0.1-0.1l1.4-1.8c0.4-0.6,0.6-1.6,0.4-2.3l-0.7-2.1c-0.2-0.7,0.2-1,0.8-0.8l2.1,0.8c0.7,0.3,1.7,0.1,2.3-0.3l1.8-1.3
	c0,0,0,0,0,0l0-0.4C20.7,6.2,20.3,5.9,19.7,6.3z M16.4,16.5l1.1,1.6c0.2,0.3,0.4,0.4,0.6,0.4l-0.9-1.3C17,17,16.7,16.7,16.4,16.5z"
	/>
<path class="st10" d="M12.9,10.2c0.1,0.2,0.1,0.4,0.1,0.6c0.3-0.5,0.4-1.2,0.2-1.8l-0.6-1.9c-0.3,0.1-0.5,0.4-0.3,0.9
	C12.3,8.1,12.9,10.2,12.9,10.2z M23.1,12.7l-0.3-0.3l-2,0.5c-0.7,0.2-1.4,0.8-1.6,1.5l-0.7,1.9c-0.2,0.6-0.7,0.7-1.1,0.1l-1.2-1.7
	c-0.4-0.5-1.3-1-2-1l-2.2,0c-0.1,0-0.3,0-0.4-0.1l-0.4,0.6c-0.4,0.6-0.2,1,0.5,1l2.2,0c0.7,0,1.6,0.5,2,1.1l1.2,1.9
	c0.4,0.6,0.9,0.5,1.1-0.1L19,16c0.2-0.7,1-1.4,1.7-1.6l2.2-0.6C23.5,13.6,23.6,13.1,23.1,12.7z"/>
<path class="st1" d="M18.1,19.1c-0.4,0-0.7-0.2-1-0.6l-1.2-1.9c-0.3-0.5-1.1-0.9-1.7-0.9l-2.2,0c-0.5,0-0.9-0.2-1.1-0.6
	c-0.2-0.4-0.1-0.8,0.2-1.2l1.4-1.8c0.4-0.4,0.5-1.3,0.4-1.9l-0.7-2.1c-0.1-0.4-0.1-0.8,0.1-1.1c0.3-0.4,0.8-0.5,1.3-0.3l2.1,0.8
	c0.2,0.1,0.4,0.1,0.6,0.1c0.5,0,0.9-0.1,1.2-0.3L19.5,6c0.3-0.2,0.5-0.3,0.8-0.3c0.2,0,0.5,0.1,0.6,0.3c0.1,0.2,0.3,0.4,0.3,1
	l-0.1,2.2c0,0.6,0.4,1.4,0.8,1.7l1.8,1.3c0.4,0.3,0.6,0.7,0.5,1.1c-0.1,0.4-0.4,0.7-0.9,0.8l-2.2,0.6c-0.5,0.2-1.2,0.8-1.4,1.3
	l-0.7,2.1C18.9,18.7,18.6,19.1,18.1,19.1z M11.8,14.7c0,0,0.1,0.1,0.3,0.1l2.2,0c0.9,0,1.9,0.6,2.4,1.3l1.2,1.9
	c0.1,0.1,0.2,0.2,0.2,0.2c0,0,0.1-0.1,0.1-0.2l0.7-2.1c0.3-0.8,1.2-1.6,2-1.9l2.2-0.6c0.2,0,0.2-0.1,0.3-0.1c0,0-0.1-0.1-0.2-0.2
	l-1.8-1.3c-0.7-0.5-1.2-1.6-1.2-2.5l0.1-2.2c0-0.2,0-0.3,0-0.3c0,0-0.1,0-0.3,0.1L18.2,8c-0.4,0.3-1.1,0.5-1.8,0.5h0
	c-0.3,0-0.7-0.1-0.9-0.2l-2.1-0.8c-0.2-0.1-0.3-0.1-0.3,0c0,0,0,0.1,0,0.3l0.7,2.1c0.3,0.8,0,2-0.5,2.7l-1.4,1.8
	C11.8,14.5,11.8,14.6,11.8,14.7z"/>
<path class="st11" d="M9.6,27c0,0,2.5-1.8,6.7-2.3l0.4,0.7c0,0-3.8,1-5.8,2.5C10.9,27.8,9.6,27.9,9.6,27z"/>
</svg>
