<?xml version="1.0" encoding="utf-8"?>
<!-- Generator: Adobe Illustrator 28.0.0, SVG Export Plug-In . SVG Version: 6.00 Build 0)  -->
<svg version="1.1" id="图层_1" xmlns="http://www.w3.org/2000/svg" xmlns:xlink="http://www.w3.org/1999/xlink" x="0px" y="0px"
	 viewBox="0 0 90 90" style="enable-background:new 0 0 90 90;" xml:space="preserve">
<style type="text/css">
	.st0{fill:#F0F0FF;}
	.st1{fill:#FFFFFF;}
	.st2{fill:#D3D3EB;}
	.st3{fill:#6E6E96;}
	.st4{display:none;}
	.st5{display:inline;}
	.st6{clip-path:url(#SVGID_00000065037916033760261690000005899489581825451928_);fill:#6E6E96;}
	.st7{clip-path:url(#SVGID_00000146466542919741157940000000066963148026829994_);fill:#FCD4D4;}
</style>
<path class="st0" d="M79.4,70c0,5.1-4.2,9.3-9.3,9.3H20c-5.1,0-9.3-4.2-9.3-9.3V20c0-5.1,4.2-9.3,9.3-9.3h50c5.1,0,9.3,4.2,9.3,9.3
	L79.4,70L79.4,70z"/>
<path class="st1" d="M13.2,77.4h10.5c-0.3-1,0.8-1-0.3-1c-1.6,0-8.7-1.1-8.7-6V21.9c0-3.7,3-6.8,6.8-6.8H70c3.1,0,5.7,4.5,5.7,9
	c0,1.2,0,0,1.2,0c0.1,0,0.2,0,0.3,0v-8.9c-1.6-2.4-4.1-4.6-7.2-4.6H21.6c-6.2,0-11.3,5.1-11.3,11.3v48.5
	C10.3,73.3,11.4,75.6,13.2,77.4z"/>
<path class="st2" d="M76.5,10.9H65.6c0.3,1-0.8,1,0.3,1c1.6,0,9,1.1,9,6.2v50.1c0,3.9-3.1,7-7,7H17.8c-3.2,0-5.9-4.7-5.9-9.3
	c0-1.3,0,0-1.3,0c-0.1,0-0.2,0-0.3,0v9.2c1.6,2.5,4.2,4.8,7.5,4.8h50.1c6.4,0,11.7-5.2,11.7-11.7V18.1
	C79.5,15.2,78.4,12.7,76.5,10.9z"/>
<path class="st3" d="M77.8,70c0,4.3-3.5,7.8-7.8,7.8H20c-4.3,0-7.8-3.5-7.8-7.8V20c0-4.3,3.5-7.8,7.8-7.8h50c4.3,0,7.8,3.5,7.8,7.8
	V70z M80.9,20C80.9,14,76,9.1,70,9.1H20C14,9.1,9.1,14,9.1,20v50c0,6,4.9,10.9,10.9,10.9h50c6,0,10.9-4.9,10.9-10.9V20z"/>
<g class="st4">
	<g class="st5">
		<path id="SVGID_1_" class="st3" d="M129.2,88.6c-1.4,0-2.7-0.6-3.7-1.6L97.2,58.1c-4.1-4.2-6.5-10-6.5-15.9c0-6,2.4-11.8,6.5-15.9
			c4.2-4.2,9.7-6.5,15.6-6.5c4.8,0,9.3,1.5,13.1,4.4l3.3,2.5l3.4-2.4l0.6-0.5c3.7-2.6,8-4,12.6-4c5.9,0,11.4,2.3,15.6,6.6
			c4.1,4.2,6.5,10,6.5,15.9c0,6-2.4,11.8-6.5,15.9L133,86.9C132,88,130.6,88.6,129.2,88.6z"/>
	</g>
	<g class="st5">
		<g>
			<defs>
				<path id="SVGID_00000168105238717929887940000002964694404807942330_" d="M129.2,88.6c-1.4,0-2.7-0.6-3.7-1.6L97.2,58.1
					c-4.1-4.2-6.5-10-6.5-15.9c0-6,2.4-11.8,6.5-15.9c4.2-4.2,9.7-6.5,15.6-6.5c4.8,0,9.3,1.5,13.1,4.4l3.3,2.5l3.4-2.4l0.6-0.5
					c3.7-2.6,8-4,12.6-4c5.9,0,11.4,2.3,15.6,6.6c4.1,4.2,6.5,10,6.5,15.9c0,6-2.4,11.8-6.5,15.9L133,86.9
					C132,88,130.6,88.6,129.2,88.6z"/>
			</defs>
			<clipPath id="SVGID_00000083786202797779484710000003068256951569768080_">
				<use xlink:href="#SVGID_00000168105238717929887940000002964694404807942330_"  style="overflow:visible;"/>
			</clipPath>
			<path style="clip-path:url(#SVGID_00000083786202797779484710000003068256951569768080_);fill:#6E6E96;" d="M113,110.5
				c-1.4,0-2.7-0.6-3.7-1.6L81,80c-4.1-4.2-6.5-10-6.5-15.9c0-6,2.4-11.8,6.5-15.9c4.2-4.2,9.7-6.5,15.6-6.5c4.8,0,9.3,1.5,13.1,4.4
				l3.3,2.5l3.4-2.4l0.6-0.5c3.7-2.6,8-4,12.6-4c5.9,0,11.4,2.3,15.6,6.6c4.1,4.2,6.5,10,6.5,15.9c0,6-2.4,11.8-6.5,15.9l-28.3,28.8
				C115.8,109.9,114.4,110.5,113,110.5z"/>
		</g>
	</g>
</g>
<path class="st3" d="M46,26.6c5.7-4.1,13.6-3.5,18.6,1.6c2.7,2.8,4.3,6.5,4.3,10.4s-1.5,7.7-4.3,10.4L49.7,64.3
	c-1.1,1.1-2.5,1.7-4.1,1.7c-1.5,0-3-0.6-4-1.7L26.7,49.1c-2.7-2.8-4.2-6.5-4.2-10.4S24,31,26.7,28.3c5.2-5.2,13.2-5.7,18.9-1.4l0,0
	L46,26.6z"/>
<path class="st2" d="M47.6,62.3l14.9-15.2c2.2-2.2,3.4-5.3,3.4-8.4c0-3.1-1.2-6.2-3.4-8.4c-2.2-2.2-5.1-3.5-8.2-3.5
	c-2.4,0-4.7,0.7-6.6,2.1l-0.3,0.2l-1.8,1.3l-1.7-1.3c-2-1.5-4.4-2.3-6.9-2.3c-3.1,0-6,1.2-8.2,3.5c-2.2,2.2-3.4,5.3-3.4,8.4
	s1.2,6.2,3.4,8.4l14.9,15.2c0.5,0.5,1.2,0.8,1.9,0.8C46.4,63.1,47.1,62.8,47.6,62.3z"/>
<path class="st3" d="M54.1,31.4c2.3,0,4.2,0.8,5.6,2.2c1.4,1.4,2.1,3.3,2.1,5.6c0,0.8-0.6,1.4-1.4,1.4S59,40,59,39.2
	c0-1.6-0.5-2.8-1.3-3.7c-0.8-0.8-2-1.3-3.7-1.3c-0.8,0-1.4-0.7-1.4-1.5C52.7,32,53.3,31.4,54.1,31.4z"/>
<g class="st4">
	<g class="st5">
		<defs>
			<path id="SVGID_00000054240364425200204020000005621108379233719481_" d="M101.6,76.3c-1.1,0-2.1-0.4-2.8-1.2L77.2,53.2
				c-3.1-3.2-4.9-7.6-4.9-12.1s1.8-8.9,4.9-12.1c3.2-3.2,7.4-5,11.8-5c3.6,0,7.1,1.2,10,3.4l2.5,1.9l2.6-1.8l0.5-0.3
				c2.8-2,6.1-3.1,9.6-3.1c4.4,0,8.6,1.8,11.8,5c3.1,3.2,4.9,7.6,4.9,12.1s-1.8,8.9-4.9,12.1l-21.5,21.8
				C103.7,75.9,102.6,76.3,101.6,76.3z"/>
		</defs>
		<clipPath id="SVGID_00000142866060567666035940000001846366259018370980_">
			<use xlink:href="#SVGID_00000054240364425200204020000005621108379233719481_"  style="overflow:visible;"/>
		</clipPath>
		<path style="clip-path:url(#SVGID_00000142866060567666035940000001846366259018370980_);fill:#FCD4D4;" d="M89.2,93
			c-1.1,0-2.1-0.4-2.8-1.2l-21.5-22c-3.1-3.2-4.9-7.6-4.9-12.1s1.8-8.9,4.9-12.1c3.2-3.2,7.4-5,11.8-5c3.6,0,7.1,1.2,10,3.4l2.5,1.9
			l2.6-1.8l0.5-0.3c2.8-2,6.1-3.1,9.6-3.1c4.4,0,8.6,1.8,11.8,5c3.1,3.2,4.9,7.6,4.9,12.1s-1.8,8.9-4.9,12.1L92.1,91.7
			C91.3,92.5,90.3,93,89.2,93z"/>
	</g>
</g>
</svg>
